# Blender v2.81 (sub 16) OBJ File: ''
# www.blender.org
o Cube
v 1.053772 1.053772 -1.803080
v 1.053772 -1.053772 -1.053772
v 1.053772 1.053772 1.803080
v 1.053772 -1.053772 1.053772
v -1.053772 1.053772 -1.053772
v -1.053772 -1.053772 -0.360511
v -1.053772 1.053772 1.053772
v -1.053772 -1.053772 0.360511
vt 0.875000 0.500000
vt 0.625000 0.750000
vt 0.625000 0.500000
vt 0.375000 0.750000
vt 0.625000 1.000000
vt 0.375000 1.000000
vt 0.625000 0.000000
vt 0.375000 0.250000
vt 0.375000 0.000000
vt 0.375000 0.500000
vt 0.125000 0.750000
vt 0.125000 0.500000
vt 0.625000 0.250000
vt 0.875000 0.750000
vn 0.0000 1.0000 0.0000
vn -0.2983 -0.2983 0.9067
vn -1.0000 0.0000 0.0000
vn 0.0000 -1.0000 0.0000
vn 1.0000 0.0000 0.0000
vn -0.2983 -0.2983 -0.9067
vn -0.3176 -0.3176 0.8934
vn -0.3176 -0.3176 -0.8934
s off
f 5/1/1 3/2/1 1/3/1
f 4/4/2 7/5/2 8/6/2
f 7/7/3 6/8/3 8/9/3
f 2/10/4 8/11/4 6/12/4
f 1/3/5 4/4/5 2/10/5
f 5/13/6 2/10/6 6/8/6
f 5/1/1 7/14/1 3/2/1
f 4/4/7 3/2/7 7/5/7
f 7/7/3 5/13/3 6/8/3
f 2/10/4 4/4/4 8/11/4
f 1/3/5 3/2/5 4/4/5
f 5/13/8 1/3/8 2/10/8
