# Blender v2.90.1 OBJ File: 'train_barrier.blend'
# www.blender.org
mtllib fence.mtl
o Cube.001_Cube.002
v 0.446823 -0.019176 0.063487
v 0.501052 0.205259 -0.015178
v 0.446823 -0.019176 -0.136513
v 0.501052 0.205259 -0.057848
v 0.646823 -0.019176 0.063487
v 0.592593 0.180824 0.009257
v 0.646823 -0.019176 -0.136513
v 0.592593 0.180824 -0.082283
v 0.478969 0.180824 0.031341
v 0.478969 0.180824 -0.104367
v 0.614676 0.180824 -0.104367
v 0.614676 0.180824 0.031341
v 0.501052 0.265034 -0.015178
v 0.501052 0.265034 -0.057848
v 0.592593 0.492009 -0.082283
v 0.592593 0.492009 0.009257
v 0.471995 0.523758 0.002883
v 0.471995 0.523758 -0.075908
v 0.612550 0.497426 -0.102240
v 0.612550 0.497426 0.029214
v 0.471995 0.590187 0.002883
v 0.471995 0.590187 -0.075908
v 0.612550 0.616518 -0.102240
v 0.612550 0.616518 0.029214
v 0.401987 0.211610 -0.052227
v 0.401987 0.263438 -0.052227
v 0.401471 0.211610 -0.028854
v 0.401471 0.263438 -0.028854
v 0.598305 0.644760 0.014969
v 0.598305 0.644760 -0.087995
v 0.495341 0.644760 -0.087995
v 0.495341 0.644760 0.014969
v 0.401471 0.591184 -0.028854
v 0.401471 0.539355 -0.028854
v 0.401987 0.591184 -0.052227
v 0.401987 0.539355 -0.052227
v 0.397017 0.606569 -0.022010
v 0.397017 0.523970 -0.022010
v 0.397840 0.606569 -0.059260
v 0.397840 0.523970 -0.059260
v -0.043899 0.606569 -0.029710
v -0.043899 0.523970 -0.029710
v -0.043076 0.606569 -0.066959
v -0.043076 0.523970 -0.066959
v 0.501052 0.180824 0.009257
v 0.501052 0.180824 -0.082283
v 0.501052 0.492009 0.009257
v 0.501052 0.492009 -0.082283
v 0.473078 0.205259 -0.015178
v 0.473078 0.205259 -0.057848
v 0.473078 0.265034 -0.015178
v 0.473078 0.265034 -0.057848
v 0.397017 0.278823 -0.022010
v 0.397017 0.196224 -0.022010
v 0.397840 0.278823 -0.059260
v 0.397840 0.196224 -0.059260
v -0.047603 0.270217 -0.038315
v -0.047603 0.204831 -0.038315
v -0.047161 0.270217 -0.058354
v -0.047161 0.204831 -0.058354
v 0.396538 0.260366 -0.029726
v 0.004948 0.588950 -0.029726
v 0.363409 0.220884 -0.029726
v -0.028182 0.549468 -0.029726
v 0.396538 0.260366 -0.005857
v 0.363409 0.220884 -0.005857
v 0.004948 0.588950 -0.005857
v -0.028182 0.549468 -0.005857
v 0.396538 0.549467 -0.060229
v 0.004948 0.220884 -0.060229
v 0.363409 0.588950 -0.060229
v -0.028182 0.260366 -0.060229
v 0.396538 0.549467 -0.084098
v 0.363409 0.588950 -0.084098
v 0.004948 0.220884 -0.084098
v -0.028182 0.260366 -0.084098
v -0.079736 -0.019176 -0.136513
v -0.133965 0.205259 -0.057848
v -0.079736 -0.019176 0.063487
v -0.133965 0.205259 -0.015178
v -0.279737 -0.019176 -0.136513
v -0.225507 0.180824 -0.082283
v -0.279736 -0.019176 0.063487
v -0.225507 0.180824 0.009257
v -0.111883 0.180824 -0.104367
v -0.111883 0.180824 0.031341
v -0.247590 0.180824 0.031341
v -0.247590 0.180824 -0.104367
v -0.133965 0.265034 -0.057848
v -0.133965 0.265034 -0.015178
v -0.225507 0.492009 0.009257
v -0.225507 0.492009 -0.082283
v -0.104955 0.523758 -0.075909
v -0.104955 0.523758 0.002883
v -0.245464 0.497426 0.029214
v -0.245464 0.497426 -0.102240
v -0.104955 0.590187 -0.075909
v -0.104955 0.590187 0.002883
v -0.245464 0.616518 0.029214
v -0.245464 0.616518 -0.102240
v -0.231218 0.644760 -0.087995
v -0.231218 0.644760 0.014969
v -0.128254 0.644760 0.014969
v -0.128254 0.644760 -0.087995
v -0.133965 0.180824 -0.082283
v -0.133965 0.180824 0.009257
v -0.133965 0.492009 -0.082283
v -0.133965 0.492009 0.009257
v -0.105991 0.205259 -0.057848
v -0.105991 0.205259 -0.015178
v -0.105991 0.265034 -0.057848
v -0.105991 0.265034 -0.015178
v -0.043899 0.278823 -0.029710
v -0.043899 0.196224 -0.029710
v -0.043076 0.278823 -0.066959
v -0.043076 0.196224 -0.066959
v 0.481095 0.497426 0.029214
v 0.481095 0.497426 -0.102240
v 0.481095 0.616518 0.029214
v 0.481095 0.616518 -0.102240
v -0.114009 0.497426 -0.102240
v -0.114009 0.497426 0.029214
v -0.114009 0.616518 -0.102240
v -0.114009 0.616518 0.029214
vt 0.000000 0.000000
vt 1.000000 1.000000
vt 0.000000 1.000000
vt 1.000000 0.000000
vt 0.000000 1.000000
vt 0.000000 0.000000
vt 0.000000 0.000000
vt 1.000000 1.000000
vt 0.000000 1.000000
vt 1.000000 0.000000
vt 0.000000 1.000000
vt 0.000000 0.000000
vt 1.000000 0.000000
vt 1.000000 0.000000
vt 0.000000 1.000000
vt 0.000000 0.000000
vt 0.000000 0.000000
vt 0.000000 1.000000
vt 0.000000 1.000000
vt 0.000000 0.000000
vt 1.000000 0.000000
vt 0.000000 1.000000
vt 0.000000 0.000000
vt 1.000000 1.000000
vt 0.000000 1.000000
vt 1.000000 0.000000
vt 0.000000 1.000000
vt 0.000000 0.000000
vt 1.000000 0.000000
vt 0.000000 1.000000
vt 0.000000 0.000000
vt 0.000000 1.000000
vt 1.000000 0.000000
vt 0.000000 1.000000
vt 1.000000 0.000000
vt 0.000000 1.000000
vt 0.000000 0.000000
vt 0.000000 0.000000
vt 1.000000 1.000000
vt 0.000000 1.000000
vt 1.000000 0.000000
vt 0.000000 1.000000
vt 0.000000 0.000000
vt 1.000000 0.000000
vt 0.000000 1.000000
vt 0.000000 0.000000
vt 1.000000 0.000000
vt 0.000000 1.000000
vt 0.000000 0.000000
vt 0.200311 0.778896
vt 0.000000 0.000000
vt 1.000000 0.000000
vt 1.000000 0.000000
vt 0.000000 1.000000
vt 0.000000 0.000000
vt 1.000000 0.000000
vt 0.000000 1.000000
vt 0.000000 0.000000
vt 1.000000 0.000000
vt 0.000000 1.000000
vt 0.000000 0.000000
vt 1.000000 0.000000
vt 0.000000 1.000000
vt 0.000000 0.000000
vt 0.000000 1.000000
vt 0.000000 0.000000
vt 1.000000 0.000000
vt 0.000000 0.000000
vt 1.000000 1.000000
vt 0.000000 1.000000
vt 1.000000 0.000000
vt 0.000000 1.000000
vt 0.000000 0.000000
vt 0.000000 0.000000
vt 1.000000 1.000000
vt 0.000000 1.000000
vt 1.000000 0.000000
vt 0.000000 0.000000
vt 1.000000 0.000000
vt 0.799689 0.778896
vt 1.000000 1.000000
vt 1.000000 0.000000
vt 0.000000 1.000000
vt 0.000000 0.000000
vt 1.000000 1.000000
vt 0.000000 1.000000
vt 1.000000 1.000000
vt 1.000000 0.000000
vt 0.000000 1.000000
vt 0.000000 0.000000
vt 1.000000 1.000000
vt 0.000000 1.000000
vt 0.000000 1.000000
vt 1.000000 0.000000
vt 0.000000 1.000000
vt 0.000000 0.000000
vt 1.000000 0.000000
vt 0.000000 1.000000
vt 0.000000 0.000000
vt 0.799689 0.778896
vt 0.000000 1.000000
vt 0.799689 0.221104
vt 1.000000 0.000000
vt 0.000000 1.000000
vt 0.000000 0.000000
vt 1.000000 0.000000
vt 0.000000 1.000000
vt 0.000000 0.000000
vt 1.000000 0.000000
vt 0.000000 0.000000
vt 0.000000 1.000000
vt 0.000000 0.000000
vt 1.000000 0.000000
vt 0.000000 1.000000
vt 0.000000 0.000000
vt 1.000000 1.000000
vt 1.000000 0.000000
vt 0.000000 1.000000
vt 0.000000 0.000000
vt 0.000000 0.000000
vt 1.000000 0.000000
vt 1.000000 0.000000
vt 0.000000 1.000000
vt 0.000000 1.000000
vt 0.000000 1.000000
vt 0.000000 0.000000
vt 0.104201 0.231004
vt 0.000000 1.000000
vt 1.000000 1.000000
vt 1.000000 0.000000
vt 0.000000 1.000000
vt 0.000000 0.000000
vt 1.000000 0.000000
vt 0.000000 1.000000
vt 0.000000 0.000000
vt 1.000000 0.000000
vt 0.000000 1.000000
vt 0.000000 0.000000
vt 1.000000 0.000000
vt 0.000000 1.000000
vt 0.000000 0.000000
vt 1.000000 0.000000
vt 0.000000 1.000000
vt 0.000000 0.000000
vt 1.000000 0.000000
vt 0.000000 1.000000
vt 0.000000 0.000000
vt 1.000000 0.000000
vt 0.000000 1.000000
vt 0.000000 0.000000
vt 1.000000 1.000000
vt 0.000000 1.000000
vt 0.000000 0.000000
vt 0.000000 0.000000
vt 1.000000 1.000000
vt 0.000000 1.000000
vt 0.000000 0.000000
vt 1.000000 1.000000
vt 0.000000 1.000000
vt 1.000000 0.000000
vt 0.000000 1.000000
vt 0.000000 0.000000
vt 1.000000 0.000000
vt 0.000000 1.000000
vt 1.000000 0.000000
vt 0.000000 0.000000
vt 0.000000 0.000000
vt 1.000000 1.000000
vt 0.000000 1.000000
vt 1.000000 0.000000
vt 0.000000 1.000000
vt 0.000000 0.000000
vt 0.000000 0.000000
vt 1.000000 1.000000
vt 0.000000 1.000000
vt 1.000000 0.000000
vt 0.000000 1.000000
vt 0.000000 0.000000
vt 1.000000 0.000000
vt 0.000000 1.000000
vt 0.000000 0.000000
vt 1.000000 0.000000
vt 1.000000 0.000000
vt 0.000000 1.000000
vt 0.000000 0.000000
vt 0.000000 0.000000
vt 1.000000 1.000000
vt 0.000000 1.000000
vt 0.000000 1.000000
vt 0.000000 0.000000
vt 1.000000 0.000000
vt 0.000000 1.000000
vt 0.000000 0.000000
vt 1.000000 1.000000
vt 0.000000 1.000000
vt 1.000000 0.000000
vt 0.000000 1.000000
vt 0.000000 0.000000
vt 1.000000 0.000000
vt 0.000000 1.000000
vt 0.000000 0.000000
vt 0.000000 1.000000
vt 1.000000 0.000000
vt 0.000000 1.000000
vt 1.000000 0.000000
vt 0.000000 1.000000
vt 0.000000 0.000000
vt 0.000000 0.000000
vt 1.000000 1.000000
vt 0.000000 1.000000
vt 1.000000 0.000000
vt 0.000000 1.000000
vt 0.000000 0.000000
vt 1.000000 0.000000
vt 0.000000 1.000000
vt 0.000000 0.000000
vt 1.000000 0.000000
vt 0.000000 1.000000
vt 0.000000 0.000000
vt 0.200311 0.221104
vt 1.000000 0.000000
vt 0.000000 1.000000
vt 0.000000 0.000000
vt 1.000000 0.000000
vt 0.000000 1.000000
vt 0.000000 0.000000
vt 1.000000 0.000000
vt 0.000000 1.000000
vt 0.000000 0.000000
vt 1.000000 0.000000
vt 0.000000 1.000000
vt 0.000000 0.000000
vt 0.000000 0.000000
vt 1.000000 1.000000
vt 0.000000 1.000000
vt 0.000000 0.000000
vt 1.000000 1.000000
vt 0.000000 1.000000
vt 0.000000 0.000000
vt 1.000000 0.000000
vt 0.000000 1.000000
vt 0.000000 0.000000
vt 1.000000 1.000000
vt 1.000000 0.000000
vt 0.000000 1.000000
vt 0.000000 0.000000
vt 0.895800 0.231004
vt 1.000000 1.000000
vt 0.000000 1.000000
vt 1.000000 0.000000
vt 0.000000 1.000000
vt 1.000000 0.000000
vt 0.895800 0.768995
vt 0.104201 0.768996
vt 0.000000 0.000000
vt 1.000000 1.000000
vt 1.000000 1.000000
vt 0.200311 0.221104
vt 1.000000 0.000000
vt 0.799689 0.221104
vt 1.000000 1.000000
vt 0.000000 1.000000
vt 0.000000 0.000000
vt 1.000000 0.000000
vt 0.000000 1.000000
vt 0.200311 0.778896
vt 1.000000 1.000000
vt 0.000000 0.000000
vt 1.000000 1.000000
vt 1.000000 1.000000
vt 1.000000 0.000000
vt 1.000000 1.000000
vt 1.000000 0.000000
vt 1.000000 1.000000
vt 1.000000 1.000000
vt 1.000000 0.000000
vt 1.000000 1.000000
vt 1.000000 1.000000
vt 1.000000 1.000000
vt 1.000000 1.000000
vt 1.000000 1.000000
vt 1.000000 0.000000
vt 1.000000 1.000000
vt 1.000000 1.000000
vt 1.000000 1.000000
vt 1.000000 1.000000
vt 1.000000 1.000000
vt 1.000000 1.000000
vt 1.000000 1.000000
vt 1.000000 1.000000
vt 1.000000 0.000000
vt 1.000000 1.000000
vt 1.000000 0.000000
vt 1.000000 1.000000
vt 1.000000 1.000000
vt 1.000000 1.000000
vt 1.000000 1.000000
vt 1.000000 1.000000
vt 1.000000 1.000000
vt 1.000000 1.000000
vt 1.000000 1.000000
vt 1.000000 1.000000
vt 1.000000 1.000000
vt 1.000000 1.000000
vt 1.000000 1.000000
vt 1.000000 1.000000
vt 1.000000 1.000000
vt 1.000000 1.000000
vt 1.000000 0.000000
vt 1.000000 1.000000
vt 1.000000 0.000000
vt 1.000000 0.000000
vt 1.000000 1.000000
vt 1.000000 1.000000
vt 1.000000 0.000000
vt 1.000000 1.000000
vt 1.000000 1.000000
vt 1.000000 1.000000
vt 1.000000 0.000000
vt 1.000000 1.000000
vt 1.000000 1.000000
vt 1.000000 1.000000
vt 1.000000 1.000000
vt 1.000000 0.000000
vt 1.000000 1.000000
vt 1.000000 1.000000
vt 1.000000 1.000000
vt 1.000000 1.000000
vt 1.000000 1.000000
vt 1.000000 1.000000
vt 1.000000 0.000000
vt 1.000000 0.000000
vt 1.000000 1.000000
vt 1.000000 1.000000
vn -0.9873 0.1587 0.0000
vn 0.0000 0.1587 -0.9873
vn 0.9873 0.1587 0.0000
vn 0.0000 0.1587 0.9873
vn 0.0000 -1.0000 0.0000
vn 1.0000 0.0000 0.0000
vn 0.0000 1.0000 0.0000
vn 0.0000 -0.9651 0.2619
vn 0.0000 0.0000 -1.0000
vn 0.0000 0.0000 1.0000
vn 0.0000 -0.9651 -0.2619
vn 0.2619 -0.9651 0.0000
vn -0.2620 -0.9651 0.0000
vn 0.0000 0.4504 0.8928
vn -0.3204 0.0000 -0.9473
vn 0.0000 0.4504 -0.8928
vn -0.8928 0.4504 0.0000
vn -0.0891 -0.9960 -0.0020
vn 0.8928 0.4504 0.0000
vn -0.9628 -0.2692 -0.0213
vn 0.0141 0.9999 0.0000
vn -0.0223 0.9998 0.0000
vn -0.1876 0.0000 0.9822
vn -0.8614 0.0000 0.5079
vn -0.9628 0.2692 -0.0213
vn -0.8382 0.0000 -0.5454
vn 0.1431 0.0000 -0.9897
vn 0.0175 0.0000 -0.9998
vn -0.0175 0.0000 0.9998
vn -1.0000 0.0000 0.0000
vn -0.0788 0.0000 -0.9969
vn -0.0884 0.9961 0.0000
vn 0.6428 0.7660 0.0000
vn 0.7660 -0.6428 0.0000
vn -0.6428 -0.7660 0.0000
vn -0.7660 0.6428 0.0000
vn 0.6428 -0.7660 0.0000
vn 0.7660 0.6428 0.0000
vn -0.6428 0.7660 0.0000
vn -0.7660 -0.6428 0.0000
vn -0.2619 -0.9651 0.0000
vn 0.2620 -0.9651 0.0000
vn 0.0035 -1.0000 0.0000
vn 0.3684 0.0000 0.9297
vn 0.9185 0.0000 -0.3954
vn 0.9034 0.0000 0.4288
vn 0.9109 0.4122 0.0201
vn 0.9109 -0.4122 0.0201
vn -0.0086 0.0000 -1.0000
vn -0.0073 -1.0000 -0.0002
vn -0.9451 -0.3266 0.0000
vn -0.9451 0.3266 0.0000
vn -0.9451 0.0000 0.3266
vn -0.9451 0.0000 -0.3266
vn 0.9457 -0.3252 0.0000
vn 0.9457 0.3252 -0.0000
vn 0.9457 0.0000 -0.3252
vn 0.9457 0.0000 0.3252
vn -0.2552 0.9669 -0.0056
vn 0.4709 0.0000 0.8822
vn -0.2190 -0.9757 -0.0048
vn -0.4104 0.0000 0.9119
vn -0.0883 -0.9961 0.0000
vn 0.0143 0.9999 0.0003
vn -0.0225 0.9997 -0.0005
vn -0.0878 0.9961 -0.0019
vn 0.0034 -1.0000 0.0001
vn -0.0073 -1.0000 0.0000
vn -0.2591 0.9658 0.0000
vn -0.2159 -0.9764 0.0000
usemtl Material.001
s off
f 1/1/1 10/2/1 3/3/1
f 10/4/2 7/5/2 3/6/2
f 7/7/3 12/8/3 5/9/3
f 12/10/4 1/11/4 5/12/4
f 7/13/5 1/11/5 3/6/5
f 8/14/6 16/15/6 6/16/6
f 45/17/7 10/2/7 9/18/7
f 8/14/7 10/19/7 46/20/7
f 6/21/7 11/22/7 8/23/7
f 6/16/7 9/24/7 12/25/7
f 16/26/8 117/27/8 47/28/8
f 4/29/9 52/30/9 14/31/9
f 6/21/10 47/32/10 45/17/10
f 46/33/9 15/34/9 8/23/9
f 19/35/6 24/36/6 20/37/6
f 15/38/11 118/39/11 19/40/11
f 15/41/12 20/42/12 16/43/12
f 47/44/13 118/45/13 48/46/13
f 24/47/14 32/48/14 119/49/14
f 22/50/15 36/51/15 35/52/15
f 20/53/10 119/54/10 117/55/10
f 118/56/9 23/57/9 19/58/9
f 120/59/16 30/60/16 23/61/16
f 119/62/17 31/63/17 120/64/17
f 50/65/18 27/66/18 25/67/18
f 54/68/7 116/69/7 114/70/7
f 23/71/19 29/72/19 24/73/19
f 26/74/20 53/75/20 55/76/20
f 30/77/7 32/48/7 29/78/7
f 22/50/21 33/79/21 21/80/21
f 52/81/22 28/82/22 51/83/22
f 35/84/20 37/85/20 39/86/20
f 51/87/23 27/88/23 49/89/23
f 38/90/7 44/91/7 42/92/7
f 35/52/24 40/93/24 36/51/24
f 36/94/25 38/95/25 34/96/25
f 34/97/26 37/98/26 33/99/26
f 97/100/27 44/101/27 93/102/27
f 38/103/28 41/104/28 37/105/28
f 37/106/5 43/107/5 39/108/5
f 39/109/29 44/101/29 40/110/29
f 4/29/30 45/111/30 2/112/30
f 13/113/30 48/114/30 14/31/30
f 13/115/30 45/116/30 47/32/30
f 14/117/30 46/118/30 4/119/30
f 52/30/31 25/120/31 26/121/31
f 14/117/7 51/83/7 13/115/7
f 13/113/10 49/89/10 2/112/10
f 2/122/5 50/65/5 4/119/5
f 26/121/24 56/123/24 25/120/24
f 25/67/25 54/124/25 27/66/25
f 27/88/26 53/125/26 28/126/26
f 57/127/32 111/128/32 112/129/32
f 54/130/28 113/131/28 53/132/28
f 53/133/5 115/134/5 55/135/5
f 55/136/29 116/137/29 56/138/29
f 64/139/9 61/140/9 63/141/9
f 65/142/10 68/143/10 66/144/10
f 62/145/33 65/146/33 61/147/33
f 61/148/34 66/149/34 63/141/34
f 64/150/35 66/151/35 68/143/35
f 64/139/36 67/152/36 62/153/36
f 71/154/10 70/155/10 69/156/10
f 74/157/9 75/158/9 76/159/9
f 70/160/37 73/161/37 69/162/37
f 69/163/38 74/164/38 71/154/38
f 71/165/39 76/159/39 72/166/39
f 70/167/40 76/168/40 75/169/40
f 85/170/3 79/171/3 77/172/3
f 79/173/4 87/174/4 83/175/4
f 87/176/1 81/177/1 83/178/1
f 88/179/2 77/180/2 81/181/2
f 83/182/5 77/180/5 79/173/5
f 84/183/30 92/184/30 82/185/30
f 105/186/7 86/187/7 85/188/7
f 84/183/7 86/189/7 106/190/7
f 82/191/7 87/192/7 84/193/7
f 82/185/7 85/194/7 88/195/7
f 92/196/11 121/197/11 107/198/11
f 80/199/10 112/200/10 90/201/10
f 82/191/9 107/202/9 105/186/9
f 106/203/10 91/204/10 84/193/10
f 95/205/30 100/206/30 96/207/30
f 91/208/8 122/209/8 95/210/8
f 91/211/41 96/212/41 92/213/41
f 107/214/42 122/215/42 108/216/42
f 100/217/16 104/218/16 123/219/16
f 93/102/43 42/92/43 94/220/43
f 96/221/9 123/222/9 121/223/9
f 122/224/10 99/225/10 95/226/10
f 124/227/14 102/228/14 99/229/14
f 123/230/19 103/231/19 124/232/19
f 100/233/17 102/234/17 101/235/17
f 101/236/7 103/237/7 104/218/7
f 80/199/6 105/238/6 78/239/6
f 89/240/6 108/241/6 90/201/6
f 89/242/6 105/243/6 107/202/6
f 90/244/6 106/245/6 80/246/6
f 58/247/44 112/200/44 110/248/44
f 90/244/7 111/128/7 89/242/7
f 89/240/9 109/249/9 78/239/9
f 78/250/5 110/251/5 80/246/5
f 57/127/45 114/252/45 58/247/45
f 60/253/46 115/134/46 59/254/46
f 60/253/47 114/252/47 116/69/47
f 59/254/48 113/255/48 57/127/48
f 60/253/49 111/256/49 59/254/49
f 58/247/50 109/257/50 60/253/50
f 18/258/51 117/259/51 17/260/51
f 22/50/52 119/261/52 120/262/52
f 17/260/53 119/261/53 21/80/53
f 22/50/54 118/263/54 18/258/54
f 94/220/55 121/264/55 93/102/55
f 97/100/56 124/265/56 98/266/56
f 93/102/57 123/267/57 97/100/57
f 98/266/58 122/268/58 94/220/58
f 97/100/59 41/269/59 43/107/59
f 98/266/60 42/270/60 41/104/60
f 18/258/61 34/96/61 36/94/61
f 21/80/62 34/97/62 17/260/62
f 1/1/1 9/271/1 10/2/1
f 10/4/2 11/272/2 7/5/2
f 7/7/3 11/273/3 12/8/3
f 12/10/4 9/24/4 1/11/4
f 7/13/5 5/274/5 1/11/5
f 8/14/6 15/275/6 16/15/6
f 45/17/7 46/33/7 10/2/7
f 8/14/7 11/272/7 10/19/7
f 6/21/7 12/8/7 11/22/7
f 6/16/7 45/276/7 9/24/7
f 16/26/8 20/277/8 117/27/8
f 4/29/9 50/278/9 52/30/9
f 6/21/10 16/279/10 47/32/10
f 46/33/9 48/280/9 15/34/9
f 19/35/6 23/281/6 24/36/6
f 15/38/11 48/282/11 118/39/11
f 15/41/12 19/283/12 20/42/12
f 47/44/13 117/284/13 118/45/13
f 24/47/14 29/285/14 32/48/14
f 22/50/15 18/258/15 36/51/15
f 20/53/10 24/286/10 119/54/10
f 118/56/9 120/287/9 23/57/9
f 120/59/16 31/288/16 30/60/16
f 119/62/17 32/289/17 31/63/17
f 50/65/63 49/290/63 27/66/63
f 54/68/7 56/291/7 116/69/7
f 23/71/19 30/292/19 29/72/19
f 26/74/20 28/82/20 53/75/20
f 30/77/7 31/288/7 32/48/7
f 22/50/64 35/84/64 33/79/64
f 52/81/65 26/74/65 28/82/65
f 35/84/20 33/79/20 37/85/20
f 51/87/23 28/126/23 27/88/23
f 38/90/7 40/293/7 44/91/7
f 35/52/24 39/294/24 40/93/24
f 36/94/25 40/295/25 38/95/25
f 34/97/26 38/296/26 37/98/26
f 97/100/27 43/297/27 44/101/27
f 38/103/28 42/270/28 41/104/28
f 37/106/5 41/269/5 43/107/5
f 39/109/29 43/297/29 44/101/29
f 4/29/30 46/298/30 45/111/30
f 13/113/30 47/299/30 48/114/30
f 13/115/30 2/122/30 45/116/30
f 14/117/30 48/280/30 46/118/30
f 52/30/31 50/278/31 25/120/31
f 14/117/7 52/81/7 51/83/7
f 13/113/10 51/87/10 49/89/10
f 2/122/5 49/290/5 50/65/5
f 26/121/24 55/300/24 56/123/24
f 25/67/25 56/301/25 54/124/25
f 27/88/26 54/302/26 53/125/26
f 57/127/66 59/254/66 111/128/66
f 54/130/28 114/303/28 113/131/28
f 53/133/5 113/304/5 115/134/5
f 55/136/29 115/305/29 116/137/29
f 64/139/9 62/306/9 61/140/9
f 65/142/10 67/307/10 68/143/10
f 62/145/33 67/307/33 65/146/33
f 61/148/34 65/308/34 66/149/34
f 64/150/35 63/309/35 66/151/35
f 64/139/36 68/310/36 67/152/36
f 71/154/10 72/311/10 70/155/10
f 74/157/9 73/312/9 75/158/9
f 70/160/37 75/158/37 73/161/37
f 69/163/38 73/313/38 74/164/38
f 71/165/39 74/314/39 76/159/39
f 70/167/40 72/311/40 76/168/40
f 85/170/3 86/187/3 79/171/3
f 79/173/4 86/315/4 87/174/4
f 87/176/1 88/316/1 81/177/1
f 88/179/2 85/194/2 77/180/2
f 83/182/5 81/317/5 77/180/5
f 84/183/30 91/318/30 92/184/30
f 105/186/7 106/203/7 86/187/7
f 84/183/7 87/174/7 86/189/7
f 82/191/7 88/316/7 87/192/7
f 82/185/7 105/319/7 85/194/7
f 92/196/11 96/320/11 121/197/11
f 80/199/10 110/248/10 112/200/10
f 82/191/9 92/321/9 107/202/9
f 106/203/10 108/322/10 91/204/10
f 95/205/30 99/323/30 100/206/30
f 91/208/8 108/324/8 122/209/8
f 91/211/41 95/325/41 96/212/41
f 107/214/42 121/326/42 122/215/42
f 100/217/16 101/327/16 104/218/16
f 93/102/67 44/91/67 42/92/67
f 96/221/9 100/328/9 123/222/9
f 122/224/10 124/329/10 99/225/10
f 124/227/14 103/237/14 102/228/14
f 123/230/19 104/330/19 103/231/19
f 100/233/17 99/331/17 102/234/17
f 101/236/7 102/332/7 103/237/7
f 80/199/6 106/333/6 105/238/6
f 89/240/6 107/334/6 108/241/6
f 89/242/6 78/250/6 105/243/6
f 90/244/6 108/322/6 106/245/6
f 58/247/44 57/127/44 112/200/44
f 90/244/7 112/129/7 111/128/7
f 89/240/9 111/256/9 109/249/9
f 78/250/5 109/257/5 110/251/5
f 57/127/45 113/255/45 114/252/45
f 60/253/46 116/69/46 115/134/46
f 60/253/47 58/247/47 114/252/47
f 59/254/48 115/134/48 113/255/48
f 60/253/49 109/249/49 111/256/49
f 58/247/68 110/251/68 109/257/68
f 18/258/51 118/263/51 117/259/51
f 22/50/52 21/80/52 119/261/52
f 17/260/53 117/259/53 119/261/53
f 22/50/54 120/262/54 118/263/54
f 94/220/55 122/268/55 121/264/55
f 97/100/56 123/267/56 124/265/56
f 93/102/57 121/264/57 123/267/57
f 98/266/58 124/265/58 122/268/58
f 97/100/69 98/266/69 41/269/69
f 98/266/60 94/220/60 42/270/60
f 18/258/70 17/260/70 34/96/70
f 21/80/62 33/99/62 34/97/62
