# Blender v2.90.1 OBJ File: ''
# www.blender.org
mtllib field_grass.mtl
v -0.604479 0.176379 -0.420755
v 0.021915 -0.003164 -0.079507
v 0.753378 0.067592 -0.047740
v -0.729344 0.893759 0.346400
v -0.090723 0.643970 0.612526
v 0.637123 0.735508 0.666518
v -0.876108 1.319093 1.303638
v -0.223116 1.027653 1.476029
v 0.500478 1.131514 1.557752
v -0.684675 -0.053606 -0.275854
v 0.021503 -0.003887 -0.076117
v 0.727681 -0.053606 -0.275854
v -0.684675 0.876534 -0.507386
v 0.021503 0.926253 -0.307649
v 0.727681 0.876534 -0.507386
v -0.684675 1.806674 -0.738919
v 0.021503 1.856393 -0.539181
v 0.727681 1.806674 -0.738918
v -0.308249 -0.053606 -0.732416
v 0.020789 -0.003887 -0.076432
v 0.644674 -0.053606 0.310026
v -0.137359 0.876534 -0.888632
v 0.191680 0.926253 -0.232648
v 0.815565 0.876534 0.153810
v 0.033532 1.806674 -1.044848
v 0.362570 1.856393 -0.388863
v 0.986455 1.806674 -0.002406
v 0.332817 -0.053606 -0.741374
v 0.020549 -0.003887 -0.077242
v 0.102402 -0.053606 0.652060
v 0.561247 0.876534 -0.703601
v 0.248978 0.926253 -0.039470
v 0.330832 0.876534 0.689833
v 0.789677 1.806674 -0.665828
v 0.477408 1.856393 -0.001697
v 0.559262 1.806674 0.727605
v 0.733344 -0.053606 -0.254509
v 0.021024 -0.003887 -0.077925
v -0.493276 -0.053606 0.445599
v 0.848115 0.876534 -0.053426
v 0.135794 0.926253 0.123159
v -0.378505 0.876534 0.646683
v 0.962885 1.806674 0.147658
v 0.250565 1.856393 0.324242
v -0.263735 1.806674 0.847766
v 0.436697 -0.053606 0.527739
v 0.022123 -0.003887 -0.077828
v -0.648218 -0.053606 -0.376535
v 0.288456 0.876534 0.705592
v -0.126118 0.926253 0.100026
v -0.796459 0.876534 -0.198681
v 0.140215 1.806674 0.883445
v -0.274359 1.856393 0.277879
v -0.944699 1.806674 -0.020828
v 0.436697 -0.053606 0.527739
v 0.022123 -0.003887 -0.077828
v -0.648218 -0.053606 -0.376535
v 0.288456 0.876534 0.705592
v -0.126118 0.926253 0.100026
v -0.796459 0.876534 -0.198681
v 0.140215 1.806674 0.883445
v -0.274359 1.856393 0.277879
v -0.944699 1.806674 -0.020828
v 0.704729 -0.053606 0.190121
v 0.021598 -0.003887 -0.078048
v -0.700791 -0.053606 0.051324
v 0.681975 0.876534 0.420532
v -0.001155 0.926253 0.152364
v -0.723544 0.876534 0.281735
v 0.659222 1.806674 0.650944
v -0.023909 1.856393 0.382775
v -0.746298 1.806674 0.512146
v 0.704739 0.176379 0.130644
v 0.021598 -0.003164 -0.074629
v -0.700788 0.067592 0.044564
v 0.669324 0.893759 -0.645800
v -0.010349 0.643969 -0.775042
v -0.733760 0.735507 -0.678342
v 0.616289 1.319092 -1.612771
v -0.058191 1.027653 -1.647324
v -0.783139 1.131512 -1.578638
v 0.142412 0.176379 0.626722
v 0.019351 -0.003163 -0.075898
v -0.411290 0.067592 -0.668009
v 0.820424 0.893760 0.246698
v 0.630971 0.643969 -0.418709
v 0.219971 0.735507 -1.021830
v 1.660802 1.319093 -0.234559
v 1.389058 1.027653 -0.852840
v 1.002404 1.131513 -1.469903
vt 0.000500 0.000500
vt 0.500000 0.000500
vt 0.500000 0.500000
vt 0.000500 0.500000
vt 0.999500 0.000500
vt 0.999500 0.500000
vt 0.500000 0.999500
vt 0.000500 0.999501
vt 0.999501 0.999500
vt 0.000500 0.000500
vt 0.500000 0.000500
vt 0.500000 0.500000
vt 0.000500 0.500000
vt 0.999500 0.000500
vt 0.999500 0.500000
vt 0.500000 0.999500
vt 0.000500 0.999501
vt 0.999501 0.999500
vt 0.000500 0.000500
vt 0.500000 0.000500
vt 0.500000 0.500000
vt 0.000500 0.500000
vt 0.999500 0.000500
vt 0.999500 0.500000
vt 0.500000 0.999500
vt 0.000500 0.999501
vt 0.999501 0.999500
vt 0.000500 0.000500
vt 0.500000 0.000500
vt 0.500000 0.500000
vt 0.000500 0.500000
vt 0.999500 0.000500
vt 0.999500 0.500000
vt 0.500000 0.999500
vt 0.000500 0.999501
vt 0.999501 0.999500
vt 0.000500 0.000500
vt 0.500000 0.000500
vt 0.500000 0.500000
vt 0.000500 0.500000
vt 0.999500 0.000500
vt 0.999500 0.500000
vt 0.500000 0.999500
vt 0.000500 0.999501
vt 0.999501 0.999500
vt 0.000500 0.000500
vt 0.500000 0.000500
vt 0.500000 0.500000
vt 0.000500 0.500000
vt 0.999500 0.000500
vt 0.999500 0.500000
vt 0.500000 0.999500
vt 0.000500 0.999501
vt 0.999501 0.999500
vt 0.000500 0.000500
vt 0.500000 0.000500
vt 0.500000 0.500000
vt 0.000500 0.500000
vt 0.999500 0.000500
vt 0.999500 0.500000
vt 0.500000 0.999500
vt 0.000500 0.999501
vt 0.999501 0.999500
vt 0.000500 0.000500
vt 0.500000 0.000500
vt 0.500000 0.500000
vt 0.000500 0.500000
vt 0.999500 0.000500
vt 0.999500 0.500000
vt 0.500000 0.999500
vt 0.000500 0.999501
vt 0.999501 0.999500
vt 0.000500 0.000500
vt 0.500000 0.000500
vt 0.500000 0.500000
vt 0.000500 0.500000
vt 0.999500 0.000500
vt 0.999500 0.500000
vt 0.500000 0.999500
vt 0.000500 0.999501
vt 0.999501 0.999500
vt 0.000500 0.000500
vt 0.500000 0.000500
vt 0.500000 0.500000
vt 0.000500 0.500000
vt 0.999500 0.000500
vt 0.999500 0.500000
vt 0.500000 0.999500
vt 0.000500 0.999501
vt 0.999501 0.999500
vn -0.4929 -0.6741 0.5501
vn -0.2396 -0.7283 0.6420
vn -0.2214 -0.8286 0.5142
vn -0.4788 -0.7646 0.4313
vn 0.0405 -0.7265 0.6859
vn 0.0626 -0.8274 0.5581
vn -0.1972 -0.9067 0.3727
vn -0.4539 -0.8380 0.3027
vn 0.0831 -0.9059 0.4152
vn -0.2798 0.2319 0.9316
vn 0.0000 0.2415 0.9704
vn 0.2798 0.2319 0.9316
vn -0.8764 0.2319 0.4220
vn -0.7162 0.2415 0.6547
vn -0.4988 0.2319 0.8351
vn -0.8735 0.2319 -0.4281
vn -0.9574 0.2415 -0.1583
vn -0.9648 0.2319 0.1241
vn -0.2188 0.2319 -0.9478
vn -0.4810 0.2415 -0.8428
vn -0.7048 0.2319 -0.6704
vn 0.8114 0.2319 -0.5365
vn 0.6213 0.2415 -0.7454
vn 0.3815 0.2319 -0.8948
vn 0.3700 0.2319 -0.8996
vn 0.0953 0.2415 -0.9657
vn -0.1869 0.2319 -0.9546
vn 0.3694 -0.6741 -0.6396
vn 0.1026 -0.7283 -0.6775
vn 0.1110 -0.8286 -0.5487
vn 0.3800 -0.7646 -0.5205
vn -0.1805 -0.7265 -0.6630
vn -0.1760 -0.8274 -0.5333
vn 0.1164 -0.9067 -0.4052
vn 0.3820 -0.8380 -0.3895
vn -0.1667 -0.9059 -0.3893
vn 0.7374 -0.6741 0.0431
vn 0.6516 -0.7283 -0.2123
vn 0.5402 -0.8286 -0.1470
vn 0.6356 -0.7646 0.1061
vn 0.5115 -0.7265 -0.4588
vn 0.3977 -0.8274 -0.3966
vn 0.4144 -0.9067 -0.0777
vn 0.5195 -0.8380 0.1666
vn 0.2731 -0.9059 -0.3236
usemtl Material.001
s 1
f 1/1/1 2/2/2 5/3/3
f 5/3/3 4/4/4 1/1/1
f 2/2/2 3/5/5 6/6/6
f 6/6/6 5/3/3 2/2/2
f 4/4/4 5/3/3 8/7/7
f 8/7/7 7/8/8 4/4/4
f 5/3/3 6/6/6 9/9/9
f 9/9/9 8/7/7 5/3/3
f 10/10/10 11/11/11 14/12/11
f 14/12/11 13/13/10 10/10/10
f 11/11/11 12/14/12 15/15/12
f 15/15/12 14/12/11 11/11/11
f 13/13/10 14/12/11 17/16/11
f 17/16/11 16/17/10 13/13/10
f 14/12/11 15/15/12 18/18/12
f 18/18/12 17/16/11 14/12/11
f 19/19/13 20/20/14 23/21/14
f 23/21/14 22/22/13 19/19/13
f 20/20/14 21/23/15 24/24/15
f 24/24/15 23/21/14 20/20/14
f 22/22/13 23/21/14 26/25/14
f 26/25/14 25/26/13 22/22/13
f 23/21/14 24/24/15 27/27/15
f 27/27/15 26/25/14 23/21/14
f 28/28/16 29/29/17 32/30/17
f 32/30/17 31/31/16 28/28/16
f 29/29/17 30/32/18 33/33/18
f 33/33/18 32/30/17 29/29/17
f 31/31/16 32/30/17 35/34/17
f 35/34/17 34/35/16 31/31/16
f 32/30/17 33/33/18 36/36/18
f 36/36/18 35/34/17 32/30/17
f 37/37/19 38/38/20 41/39/20
f 41/39/20 40/40/19 37/37/19
f 38/38/20 39/41/21 42/42/21
f 42/42/21 41/39/20 38/38/20
f 40/40/19 41/39/20 44/43/20
f 44/43/20 43/44/19 40/40/19
f 41/39/20 42/42/21 45/45/21
f 45/45/21 44/43/20 41/39/20
f 46/46/22 47/47/23 50/48/23
f 50/48/23 49/49/22 46/46/22
f 47/47/23 48/50/24 51/51/24
f 51/51/24 50/48/23 47/47/23
f 49/49/22 50/48/23 53/52/23
f 53/52/23 52/53/22 49/49/22
f 50/48/23 51/51/24 54/54/24
f 54/54/24 53/52/23 50/48/23
f 55/55/22 56/56/23 59/57/23
f 59/57/23 58/58/22 55/55/22
f 56/56/23 57/59/24 60/60/24
f 60/60/24 59/57/23 56/56/23
f 58/58/22 59/57/23 62/61/23
f 62/61/23 61/62/22 58/58/22
f 59/57/23 60/60/24 63/63/24
f 63/63/24 62/61/23 59/57/23
f 64/64/25 65/65/26 68/66/26
f 68/66/26 67/67/25 64/64/25
f 65/65/26 66/68/27 69/69/27
f 69/69/27 68/66/26 65/65/26
f 67/67/25 68/66/26 71/70/26
f 71/70/26 70/71/25 67/67/25
f 68/66/26 69/69/27 72/72/27
f 72/72/27 71/70/26 68/66/26
f 73/73/28 74/74/29 77/75/30
f 77/75/30 76/76/31 73/73/28
f 74/74/29 75/77/32 78/78/33
f 78/78/33 77/75/30 74/74/29
f 76/76/31 77/75/30 80/79/34
f 80/79/34 79/80/35 76/76/31
f 77/75/30 78/78/33 81/81/36
f 81/81/36 80/79/34 77/75/30
f 82/82/37 83/83/38 86/84/39
f 86/84/39 85/85/40 82/82/37
f 83/83/38 84/86/41 87/87/42
f 87/87/42 86/84/39 83/83/38
f 85/85/40 86/84/39 89/88/43
f 89/88/43 88/89/44 85/85/40
f 86/84/39 87/87/42 90/90/45
f 90/90/45 89/88/43 86/84/39
