# Blender v2.90.1 OBJ File: ''
# www.blender.org
mtllib rock_0.mtl
v -0.370781 0.310587 0.659245
v -0.554831 0.349616 0.400648
v -0.400341 0.072522 0.435159
v 0.014748 0.286129 0.692583
v -0.028192 0.084953 0.521358
v -0.463876 0.541534 0.647060
v -0.142408 0.528272 0.666094
v -0.603969 0.548424 0.396832
v 0.366016 0.344288 0.528690
v 0.309703 0.494318 0.696187
v 0.185695 0.226899 0.537537
v 0.497310 0.580953 0.614385
v 0.089229 0.558284 0.674109
v 0.200826 0.716439 0.671185
v 0.126265 0.891150 0.634809
v 0.536415 0.877719 0.433928
v 0.220946 1.057175 0.458330
v 0.053650 1.032557 0.575998
v -0.133499 0.863554 0.625755
v 0.617493 0.554126 0.489973
v -0.209754 0.965787 0.552363
v -0.418545 0.971385 0.259674
v -0.484055 0.847683 0.396124
v -0.573164 0.696786 0.496433
v -0.401707 0.761309 0.628861
v -0.065261 1.087749 0.523212
v -0.267294 1.099782 0.234117
v -0.533499 0.993430 0.114829
v 0.048280 1.189880 0.444305
v -0.132874 1.227594 0.237390
v 0.094748 1.306884 0.125822
v -0.066988 1.325292 -0.093719
v -0.217956 1.278400 0.004215
v -0.381731 1.174496 0.017772
v -0.374773 1.134679 -0.169264
v 0.551472 1.084186 0.248766
v 0.319490 1.288909 0.220750
v 0.420963 1.182273 -0.089211
v 0.210485 1.349558 -0.002151
v 0.155180 1.329620 -0.278067
v 0.364735 1.047492 -0.596824
v 0.085984 1.166607 -0.600418
v 0.259588 1.295024 -0.214099
v 0.470763 1.097137 -0.261698
v -0.104101 1.251037 -0.327625
v -0.227581 1.158670 -0.433230
v -0.153967 1.103545 -0.602917
v -0.453545 0.810716 -0.449378
v -0.029718 0.942364 -0.698892
v -0.185366 0.516646 -0.683378
v 0.098119 0.552148 -0.799644
v -0.320028 0.578084 -0.578014
v -0.470777 0.523654 -0.464588
v 0.558370 0.737749 -0.518603
v 0.474989 0.465369 -0.640569
v 0.319891 0.705527 -0.707880
v 0.152400 0.871602 -0.692882
v 0.197837 0.330503 -0.758625
v 0.373729 0.242164 -0.543053
v -0.002004 -0.014881 -0.587261
v -0.035682 0.355834 -0.761055
v 0.224849 0.036485 -0.479700
v -0.519222 0.165069 -0.296524
v -0.307693 0.321249 -0.570753
v -0.254427 0.084406 -0.549349
v -0.567260 0.095996 0.244893
v -0.455015 -0.017039 0.206300
v -0.522651 0.064193 -0.060234
v -0.420813 -0.033461 0.033535
v -0.097011 -0.059466 0.015253
v 0.025863 -0.022520 0.220693
v -0.229103 -0.020060 0.234251
v -0.388443 -0.032145 -0.175679
v -0.301289 -0.046535 -0.396730
v -0.030109 -0.027736 -0.398271
v -0.152811 -0.038295 -0.295989
v 0.420173 0.126291 -0.363280
v 0.523517 0.108729 -0.093882
v 0.155890 -0.058016 0.052092
v 0.276902 0.000709 -0.212343
v 0.094140 -0.067525 -0.139135
v 0.289555 0.037225 0.201832
v 0.575855 0.170776 0.130162
v 0.631353 0.827904 0.297985
v 0.710463 0.573086 0.150595
v 0.680743 0.756992 -0.076902
v 0.692200 0.897095 0.032347
v 0.637105 0.977809 -0.169966
v 0.715319 0.388377 0.321789
v 0.634871 0.302333 -0.202538
v 0.677903 0.324574 0.115205
v 0.540608 0.310058 -0.431439
v 0.641685 0.522387 -0.237099
v 0.615884 0.902437 -0.360760
v -0.587416 0.569312 -0.281037
v -0.632138 0.725611 -0.072806
v -0.559218 0.883705 -0.060429
v -0.667538 0.569493 -0.116449
v -0.690667 0.602117 0.131606
v -0.621871 0.195414 -0.068516
v -0.659823 0.373914 0.178555
v -0.667320 0.757000 0.231061
vt 0.619500 0.085700
vt 0.551300 0.116200
vt 0.546600 0.035400
vt 0.700800 0.020900
vt 0.043000 0.716900
vt 0.127900 0.785200
vt 0.109400 0.858100
vt 0.613100 0.149700
vt 0.682300 0.118900
vt 0.555000 0.184900
vt 0.223100 0.879500
vt 0.184000 0.935100
vt 0.176100 0.838300
vt 0.245500 0.959500
vt 0.759700 0.080400
vt 0.809700 0.032600
vt 0.810300 0.108200
vt 0.106300 0.376000
vt 0.169300 0.262300
vt 0.180300 0.361600
vt 0.806200 0.220900
vt 0.735600 0.187500
vt 0.811600 0.167500
vt 0.145900 0.410900
vt 0.072800 0.237800
vt 0.102100 0.191600
vt 0.067300 0.335100
vt 0.021600 0.278500
vt 0.722600 0.228900
vt 0.659900 0.283600
vt 0.633600 0.246400
vt 0.605000 0.203500
vt 0.665400 0.189100
vt 0.775400 0.255300
vt 0.693000 0.333200
vt 0.590600 0.326000
vt 0.168400 0.450400
vt 0.204800 0.416900
vt 0.262400 0.469500
vt 0.247200 0.522300
vt 0.297100 0.403600
vt 0.363800 0.445500
vt 0.333000 0.493700
vt 0.634600 0.400100
vt 0.319100 0.551200
vt 0.795700 0.945300
vt 0.876100 0.943200
vt 0.837900 0.984000
vt 0.245500 0.267200
vt 0.265800 0.351000
vt 0.336900 0.289000
vt 0.330200 0.367900
vt 0.771800 0.808500
vt 0.826500 0.691600
vt 0.862000 0.761400
vt 0.740200 0.784400
vt 0.730600 0.698500
vt 0.839100 0.852800
vt 0.410600 0.372500
vt 0.387100 0.338000
vt 0.378300 0.246400
vt 0.893600 0.855800
vt 0.779500 0.893000
vt 0.917000 0.803400
vt 0.556100 0.805000
vt 0.590700 0.928500
vt 0.499800 0.912700
vt 0.450300 0.880100
vt 0.933500 0.737400
vt 0.469300 0.710100
vt 0.409700 0.826100
vt 0.380800 0.704700
vt 0.512700 0.760600
vt 0.567600 0.724600
vt 0.811100 0.594900
vt 0.864700 0.536300
vt 0.890700 0.622200
vt 0.973100 0.615000
vt 0.903800 0.687500
vt 0.970800 0.540100
vt 0.908600 0.478700
vt 0.462500 0.558400
vt 0.431800 0.660100
vt 0.372200 0.632300
vt 0.957100 0.415300
vt 0.404800 0.522000
vt 0.620900 0.627800
vt 0.520200 0.683300
vt 0.519100 0.616800
vt 0.481600 0.076900
vt 0.463400 0.029000
vt 0.384000 0.087100
vt 0.401000 0.028900
vt 0.181600 0.647200
vt 0.182500 0.712100
vt 0.116900 0.683300
vt 0.062000 0.645000
vt 0.096300 0.604700
vt 0.135700 0.556000
vt 0.560100 0.554500
vt 0.633300 0.550100
vt 0.486700 0.514100
vt 0.214200 0.561600
vt 0.191600 0.513100
vt 0.261800 0.555200
vt 0.697000 0.535400
vt 0.684300 0.586400
vt 0.881300 0.419600
vt 0.355400 0.726100
vt 0.237300 0.692200
vt 0.311100 0.651300
vt 0.902800 0.346700
vt 0.810600 0.364800
vt 0.251200 0.638700
vt 0.408200 0.440700
vt 0.248700 0.752600
vt 0.333100 0.792700
vt 0.191200 0.210000
vt 0.192400 0.135500
vt 0.278100 0.152800
vt 0.247000 0.193600
vt 0.327800 0.202500
vt 0.342600 0.886300
vt 0.135800 0.008700
vt 0.253800 0.008700
vt 0.165700 0.061600
vt 0.118100 0.113200
vt 0.295000 0.944100
vt 0.846700 0.477900
vt 0.760300 0.503900
vt 0.784000 0.438600
vt 0.294900 0.067100
vt 0.743100 0.331900
vt 0.750400 0.623300
vt 0.376000 0.163300
vt 0.628100 0.746300
vt 0.681200 0.806100
vt 0.664400 0.858700
vt 0.438600 0.260000
vt 0.510700 0.228500
vt 0.481600 0.300300
vt 0.682600 0.752500
vt 0.638500 0.964400
vt 0.694700 0.637000
vt 0.399800 0.142100
vt 0.492100 0.164200
vt 0.557900 0.247500
vt 0.524700 0.343700
vn -0.3947 -0.3470 0.8508
vn -0.8334 -0.2691 0.4828
vn -0.4000 -0.7135 0.5753
vn 0.0925 -0.3841 0.9186
vn 0.1078 -0.7928 0.5999
vn -0.5356 -0.0319 0.8438
vn -0.0545 0.0848 0.9949
vn -0.9078 -0.1258 0.4001
vn 0.4644 -0.6200 0.6324
vn 0.2975 -0.1934 0.9349
vn 0.4235 -0.6648 0.6153
vn 0.5639 -0.0324 0.8252
vn -0.0683 0.0888 0.9937
vn 0.1116 0.2073 0.9719
vn 0.1709 0.3821 0.9082
vn 0.6149 0.4422 0.6530
vn 0.3881 0.5738 0.7212
vn 0.1252 0.5301 0.8386
vn -0.1126 0.3051 0.9456
vn 0.7824 -0.0649 0.6194
vn -0.3926 0.6371 0.6633
vn -0.4965 0.7358 0.4606
vn -0.5877 0.6848 0.4309
vn -0.8077 0.2849 0.5162
vn -0.3916 0.4144 0.8215
vn -0.3072 0.6618 0.6838
vn -0.5556 0.6802 0.4782
vn -0.7477 0.6459 0.1542
vn 0.0072 0.7968 0.6042
vn -0.3916 0.8279 0.4015
vn -0.1181 0.9552 0.2712
vn -0.2551 0.9653 -0.0550
vn -0.4026 0.9135 0.0590
vn -0.6501 0.7514 0.1130
vn -0.6889 0.6777 -0.2571
vn 0.6919 0.6231 0.3648
vn 0.3799 0.8568 0.3487
vn 0.6367 0.7643 -0.1023
vn 0.2212 0.9742 0.0440
vn 0.1328 0.9433 -0.3041
vn 0.4854 0.5283 -0.6966
vn 0.0548 0.7040 -0.7081
vn 0.5207 0.8270 -0.2122
vn 0.6389 0.7227 -0.2637
vn -0.3253 0.8956 -0.3033
vn -0.5556 0.7359 -0.3871
vn -0.4238 0.5598 -0.7121
vn -0.7548 0.2858 -0.5904
vn -0.1691 0.2688 -0.9482
vn -0.5129 0.0267 -0.8580
vn 0.0026 0.0661 -0.9978
vn -0.5852 0.0520 -0.8092
vn -0.7337 -0.0442 -0.6780
vn 0.8131 0.0914 -0.5749
vn 0.6817 -0.1816 -0.7087
vn 0.3932 0.1722 -0.9032
vn 0.1635 0.2992 -0.9401
vn 0.2907 -0.3433 -0.8931
vn 0.5568 -0.5685 -0.6056
vn 0.0570 -0.8131 -0.5794
vn -0.2780 -0.2067 -0.9381
vn 0.4197 -0.8097 -0.4102
vn -0.7988 -0.3846 -0.4626
vn -0.6221 -0.1652 -0.7653
vn -0.5112 -0.4273 -0.7457
vn -0.8051 -0.5190 0.2873
vn -0.3965 -0.8985 0.1885
vn -0.7199 -0.6775 -0.1511
vn -0.3642 -0.9313 -0.0091
vn -0.0436 -0.9968 0.0665
vn 0.0938 -0.9503 0.2967
vn -0.0366 -0.9651 0.2594
vn -0.4236 -0.8955 -0.1363
vn -0.3842 -0.8616 -0.3319
vn 0.1092 -0.9889 -0.1010
vn -0.0065 -0.9991 -0.0409
vn 0.5999 -0.7085 -0.3716
vn 0.6401 -0.7634 -0.0863
vn 0.2213 -0.9646 0.1436
vn 0.3709 -0.9163 -0.1510
vn 0.1282 -0.9870 -0.0974
vn 0.3983 -0.8401 0.3683
vn 0.6382 -0.7379 0.2194
vn 0.8950 0.2608 0.3620
vn 0.9984 0.0430 0.0364
vn 0.9830 0.0206 -0.1827
vn 0.9542 0.2982 0.0260
vn 0.8467 0.5000 -0.1820
vn 0.8683 -0.3267 0.3733
vn 0.9020 -0.3499 -0.2528
vn 0.9277 -0.3652 -0.0779
vn 0.7952 -0.4029 -0.4531
vn 0.9596 -0.0653 -0.2738
vn 0.8685 0.3292 -0.3706
vn -0.8851 0.0434 -0.4633
vn -0.9083 0.3390 -0.2451
vn -0.8510 0.4711 -0.2321
vn -0.9553 0.0606 -0.2895
vn -0.9985 0.0269 0.0483
vn -0.9109 -0.3704 -0.1821
vn -0.9667 -0.1840 0.1777
vn -0.9185 0.3394 0.2027
usemtl Material
s 1
f 1/1/1 2/2/2 3/3/3
f 4/4/4 1/1/1 3/3/3
f 3/5/3 5/6/5 4/7/4
f 6/8/6 1/1/1 7/9/7
f 1/1/1 4/4/4 7/9/7
f 8/10/8 2/2/2 6/8/6
f 6/8/6 2/2/2 1/1/1
f 9/11/9 10/12/10 11/13/11
f 9/11/9 12/14/12 10/12/10
f 13/15/13 7/9/7 4/4/4
f 4/4/4 10/16/10 13/15/13
f 10/16/10 14/17/14 13/15/13
f 4/7/4 5/6/5 11/13/11
f 11/13/11 10/12/10 4/7/4
f 15/18/15 16/19/16 17/20/17
f 18/21/18 19/22/19 15/23/15
f 15/18/15 17/20/17 18/24/18
f 19/22/19 13/15/13 14/17/14
f 14/17/14 15/23/15 19/22/19
f 12/25/12 20/26/20 16/19/16
f 16/19/16 15/18/15 12/25/12
f 12/25/12 15/18/15 14/27/14
f 14/27/14 10/28/10 12/25/12
f 21/29/21 22/30/22 23/31/23
f 24/32/24 25/33/25 23/31/23
f 25/33/25 21/29/21 23/31/23
f 8/10/8 6/8/6 24/32/24
f 25/33/25 24/32/24 6/8/6
f 7/9/7 13/15/13 19/22/19
f 25/33/25 7/9/7 19/22/19
f 25/33/25 6/8/6 7/9/7
f 19/22/19 18/21/18 26/34/26
f 19/22/19 26/34/26 21/29/21
f 21/29/21 25/33/25 19/22/19
f 22/30/22 21/29/21 27/35/27
f 21/29/21 26/34/26 27/35/27
f 27/35/27 28/36/28 22/30/22
f 26/37/26 18/24/18 29/38/29
f 26/37/26 29/38/29 30/39/30
f 30/39/30 27/40/27 26/37/26
f 31/41/31 32/42/32 33/43/33
f 30/39/30 31/41/31 33/43/33
f 34/44/34 28/36/28 27/35/27
f 27/40/27 30/39/30 34/45/34
f 30/39/30 33/43/33 34/45/34
f 33/46/33 35/47/35 34/48/34
f 17/20/17 16/19/16 36/49/36
f 37/50/37 17/20/17 36/49/36
f 37/50/37 36/49/36 38/51/38
f 39/52/39 37/50/37 38/51/38
f 39/52/39 32/42/32 31/41/31
f 29/38/29 18/24/18 17/20/17
f 37/50/37 39/52/39 31/41/31
f 17/20/17 37/50/37 29/38/29
f 29/38/29 37/50/37 31/41/31
f 31/41/31 30/39/30 29/38/29
f 40/53/40 41/54/41 42/55/42
f 40/53/40 43/56/43 41/54/41
f 41/54/41 43/56/43 44/57/44
f 45/58/45 40/53/40 42/55/42
f 32/42/32 39/52/39 40/59/40
f 43/60/43 40/59/40 39/52/39
f 38/51/38 44/61/44 43/60/43
f 43/60/43 39/52/39 38/51/38
f 45/58/45 46/62/46 35/47/35
f 40/53/40 45/58/45 32/63/32
f 35/47/35 33/46/33 32/63/32
f 35/47/35 32/63/32 45/58/45
f 45/58/45 42/55/42 47/64/47
f 47/64/47 46/62/46 45/58/45
f 48/65/48 35/66/35 46/67/46
f 48/65/48 46/67/46 47/68/47
f 47/64/47 42/55/42 49/69/49
f 50/70/50 47/68/47 49/71/49
f 50/70/50 49/71/49 51/72/51
f 52/73/52 53/74/53 48/65/48
f 48/65/48 47/68/47 52/73/52
f 47/68/47 50/70/50 52/73/52
f 54/75/54 55/76/55 56/77/56
f 41/54/41 54/75/54 56/77/56
f 56/77/56 51/78/51 57/79/57
f 51/78/51 49/69/49 57/79/57
f 57/79/57 49/69/49 42/55/42
f 41/54/41 57/79/57 42/55/42
f 41/54/41 56/77/56 57/79/57
f 58/80/58 55/76/55 59/81/59
f 60/82/60 61/83/61 58/84/58
f 59/81/59 62/85/62 58/80/58
f 58/84/58 62/86/62 60/82/60
f 51/78/51 56/77/56 58/80/58
f 58/84/58 61/83/61 51/72/51
f 58/80/58 56/77/56 55/76/55
f 63/87/63 64/88/64 65/89/65
f 53/74/53 52/73/52 64/88/64
f 64/88/64 52/73/52 50/70/50
f 51/72/51 61/83/61 50/70/50
f 64/88/64 50/70/50 61/83/61
f 61/83/61 60/82/60 65/89/65
f 65/89/65 64/88/64 61/83/61
f 66/90/66 67/91/67 3/3/3
f 67/91/67 68/92/68 69/93/69
f 70/94/70 71/95/71 72/96/72
f 72/96/72 67/97/67 69/98/69
f 72/96/72 69/98/69 70/94/70
f 73/99/73 70/94/70 69/98/69
f 3/5/3 72/96/72 5/6/5
f 67/97/67 72/96/72 3/5/3
f 72/96/72 71/95/71 5/6/5
f 74/100/74 73/101/73 63/87/63
f 74/100/74 63/87/63 65/89/65
f 74/100/74 65/89/65 60/82/60
f 60/82/60 75/102/75 74/100/74
f 70/94/70 73/99/73 76/103/76
f 73/99/73 74/104/74 76/103/76
f 74/104/74 75/105/75 76/103/76
f 69/106/69 68/107/68 73/101/73
f 59/81/59 77/108/77 62/85/62
f 78/109/78 79/110/79 80/111/80
f 80/112/80 62/85/62 77/108/77
f 80/112/80 77/108/77 78/113/78
f 70/94/70 76/103/76 81/114/81
f 76/103/76 75/105/75 81/114/81
f 81/114/81 75/105/75 80/111/80
f 80/115/80 75/102/75 62/86/62
f 75/102/75 60/82/60 62/86/62
f 11/13/11 82/116/82 9/11/9
f 82/116/82 83/117/83 9/11/9
f 5/6/5 71/95/71 82/116/82
f 82/116/82 11/13/11 5/6/5
f 79/110/79 70/94/70 81/114/81
f 80/111/80 79/110/79 81/114/81
f 79/110/79 82/116/82 71/95/71
f 71/95/71 70/94/70 79/110/79
f 82/116/82 79/110/79 78/109/78
f 82/116/82 78/109/78 83/117/83
f 16/19/16 84/118/84 36/49/36
f 84/118/84 16/19/16 20/26/20
f 85/119/85 86/120/86 87/121/87
f 20/26/20 85/119/85 84/118/84
f 84/118/84 85/119/85 87/121/87
f 36/49/36 84/118/84 87/121/87
f 87/121/87 88/122/88 36/49/36
f 9/11/9 83/117/83 89/123/89
f 83/124/83 90/125/90 91/126/91
f 91/126/91 89/127/89 83/124/83
f 89/127/89 91/126/91 85/119/85
f 90/125/90 85/119/85 91/126/91
f 12/14/12 9/11/9 20/128/20
f 20/128/20 9/11/9 89/123/89
f 85/119/85 20/26/20 89/127/89
f 77/108/77 59/81/59 92/129/92
f 59/81/59 55/76/55 92/129/92
f 92/129/92 93/130/93 90/131/90
f 90/131/90 77/108/77 92/129/92
f 55/76/55 54/75/54 93/130/93
f 92/129/92 55/76/55 93/130/93
f 86/120/86 85/119/85 93/132/93
f 93/132/93 85/119/85 90/125/90
f 78/113/78 77/108/77 90/131/90
f 90/131/90 83/133/83 78/113/78
f 41/54/41 44/57/44 94/134/94
f 94/134/94 54/75/54 41/54/41
f 38/51/38 36/49/36 88/122/88
f 94/135/94 44/61/44 88/122/88
f 44/61/44 38/51/38 88/122/88
f 93/132/93 94/135/94 86/120/86
f 93/130/93 54/75/54 94/134/94
f 94/135/94 88/122/88 86/120/86
f 87/121/87 86/120/86 88/122/88
f 48/65/48 53/74/53 95/136/95
f 95/136/95 96/137/96 48/65/48
f 96/137/96 97/138/97 48/65/48
f 98/139/98 99/140/99 96/141/96
f 96/137/96 95/136/95 98/142/98
f 97/138/97 34/143/34 35/66/35
f 48/65/48 97/138/97 35/66/35
f 64/88/64 63/87/63 53/74/53
f 95/136/95 53/74/53 63/87/63
f 95/136/95 63/87/63 100/144/100
f 63/87/63 68/107/68 100/144/100
f 63/87/63 73/101/73 68/107/68
f 98/142/98 95/136/95 100/144/100
f 98/139/98 100/145/100 101/146/101
f 2/2/2 66/90/66 3/3/3
f 101/146/101 66/90/66 2/2/2
f 101/146/101 2/2/2 8/10/8
f 99/140/99 98/139/98 101/146/101
f 101/146/101 8/10/8 99/140/99
f 68/92/68 67/91/67 66/90/66
f 66/90/66 101/146/101 100/145/100
f 66/90/66 100/145/100 68/92/68
f 22/30/22 28/36/28 23/31/23
f 28/36/28 102/147/102 23/31/23
f 34/44/34 97/148/97 28/36/28
f 97/148/97 102/147/102 28/36/28
f 8/10/8 102/147/102 99/140/99
f 99/140/99 102/147/102 96/141/96
f 97/148/97 96/141/96 102/147/102
f 24/32/24 23/31/23 102/147/102
f 102/147/102 8/10/8 24/32/24
